<svg xmlns="http://www.w3.org/2000/svg" width="383" height="343" viewBox="0 0 383 343"><path d="M382.486,299.577c-.12-1.459-.24-2.919-.342-4.378v-.893c-.205-3.159-.427-6.439-.5-9.649q0-3.966-.1-7.933c0-3.983,0-8.1-.223-12.173-.2-5-.512-10.079-.8-14.972-.256-4.241-.53-8.585-.718-12.946-.6-12.877-1.111-25.978-1.607-38.632l-.29-7.658a72.488,72.488,0,0,0-1.624-14.989,4.341,4.341,0,0,0-3.06-3.434,15.211,15.211,0,0,0-6.257-.927c-1.47.12-2.991.1-4.461.086h-2.958l-5.829.206-4.684.189h-2.376l-.119-4.739c0-4.172-.188-8.259-.308-12.328q-.326-11.812-.735-23.625c0-2.061-.154-4.138-.257-6.2-.2-4.206-.427-8.584-.29-12.825.239-7.881,0-16.054-.479-24.278-.273-3.966-.41-8.242-.478-13.839,0-1.975,0-4.447-2.684-5.717-.291-.12-.564-.292-.855-.446a5.642,5.642,0,0,0-2.274-.893c-5.3-.429-10.837-.756-16.5-1-3.179-.137-6.359-.24-9.538-.326s-6.428-.206-9.641-.343a32.634,32.634,0,0,1-4.206-.429l-1.47-.189V59.819c0-1.511.154-3,.24-4.516.154-2.524.307-5.151.342-7.692V29.91c0-2.386.136-4.756.153-7.16,0-3.125,0-6.267-.153-9.323v-.549a29.641,29.641,0,0,0-.223-3.434,5.435,5.435,0,0,0-6.239-4.859h-.8a12.761,12.761,0,0,1-3.521,0,95.974,95.974,0,0,0-13.231-1.15,43.143,43.143,0,0,1-5.128-.481L265.9,2.7,178.927,0h-1.812a7.35,7.35,0,0,0-4.838,1.837c-.718.549-1.384,1.168-2.034,1.717s-1.008.927-1.538,1.356c-3.607,2.97-7.248,5.958-10.889,8.877-2.753,2.232-5.624,4.43-8.428,6.593l-.667.549a5.114,5.114,0,0,1-1.863,1.168,3.437,3.437,0,0,0-2.786,4.172c-.137,6.3-.24,12.585-.342,18.887l-.12,7.675c0,2.387-.1,4.773-.188,7.229v2.764H121.815c-5.675.086-11.265.292-15.487.464a4.853,4.853,0,0,0-4.992,3.228,2.051,2.051,0,0,1-.479.635l-2.239,2.3c-1.709,1.8-3.419,3.589-5.128,5.391-.6.635-1.179,1.3-1.71,1.975s-1.282,1.477-1.949,2.163c-1.47,1.528-2.957,3-4.427,4.5-2.41,2.438-4.906,4.945-7.282,7.5-3.692,4-7.316,8.173-10.821,12.208l-2.034,2.352a5.974,5.974,0,0,0-1.573,4.172,13.676,13.676,0,0,0,.205,1.855,16.842,16.842,0,0,1,.188,2.215c0,6.043,0,12.019-.137,18.131v.309a1.909,1.909,0,0,1-.872,1.717A48.787,48.787,0,0,0,51.763,147.23a54.822,54.822,0,0,0-4.547,9.083,109.135,109.135,0,0,0-5.983,18.543c-.256,1.34-.256,1.322-1.47,1.322H32.378a116.238,116.238,0,0,1-13.829-.24,40.4,40.4,0,0,0-4.564,0H11.471l-.12.378c-.1.326-.171.618-.256.893l-.154.549a64.7,64.7,0,0,0-1.709,12.551c0,.756-.1,1.528-.171,2.284-.667,8.43-1.3,16.946-1.9,26.046-.462,6.49-.872,13-1.282,19.5l-.5,7.795c-.1,1.82-.222,3.64-.325,5.46-.256,4.241-.513,8.585-.872,12.946-.256,3.228-.615,6.49-.94,9.667-.308,2.815-.6,5.631-.855,8.464-.222,2.541-.359,5.151-.5,7.641,0,1.184-.12,2.369-.205,3.554l-.154,2.644c-.12,2.146-.222,4.292-.393,6.439A26.34,26.34,0,0,1,.8,306.033C.668,307.115.6,307.75.514,308.694s-.1,1.3-.171,1.958c-.171,1.94-.359,3.966-.342,5.94,0,2.936,1.231,4.327,4.256,4.774a29.344,29.344,0,0,0,3.863.223h7.744c5.128,0,10.581,0,15.846.257,8.769.447,16.684.79,24.8.43,5.368-.258,10.923-.533,16.5-.567,2.7,0,5.436,0,8.1.12,2.034,0,4.068.12,6.12.138h23.932l12.257-.1c6.838,0,13.846-.138,20.769-.121a7.113,7.113,0,0,0,6.291-2.884,4.6,4.6,0,0,0,1.111-3.159c-.239-4.138-.427-8.276-.6-12.414v-3.64h3.47l6.462.395c3.555.223,7.231.446,10.838.618,3.982.172,8.017.275,11.965.36l5.419.138a10.809,10.809,0,0,1,1.83.1v9.186a12.058,12.058,0,0,0,1.538,7.743l.137.206h.239l.615.086a17.01,17.01,0,0,0,1.949.206h1.71c4.444.12,9.025.223,13.521.258s8.547,0,12.8,0h7.761c2.854,0,5.487,0,8.034.12a2.946,2.946,0,0,1,.872.086,3.465,3.465,0,0,1,0,.91,6.582,6.582,0,0,1-.188,1.133,20.436,20.436,0,0,0-.359,3.245,32.634,32.634,0,0,1-.308,3.434,21.728,21.728,0,0,0-.239,5.288,2.717,2.717,0,0,1-.171.807,5.156,5.156,0,0,0,3.077,6.422,16.738,16.738,0,0,0,3.931.841c4.5.412,9.83.858,15.249,1.185l3.145.223c2.479.172,4.974.36,7.5.36a38.024,38.024,0,0,0,5.915-.429l2.222-.4c.872-.171,1.71-.326,2.65-.463l10-1.425c6.239-.859,12.684-1.717,18.992-2.8,8.085-1.339,16.137-2.988,23.692-4.567,3.419-.7,6.838-1.528,10.137-2.318,3.043-.721,6.188-1.477,9.3-2.146,3.607-.773,7.3-1.425,10.872-2.061l5.042-.91h.24l.136-.223.257-.6a2.546,2.546,0,0,1,.376-.669,2.464,2.464,0,0,0,1.026-3.057l-.821-4.086c-.461-2.369-.94-4.722-1.4-7.091a11.132,11.132,0,0,1-.2-1.2v-.189h4.188c1.71,0,3.419,0,5.231-.12a3.411,3.411,0,0,0,2.7-.841,3.773,3.773,0,0,0,.6-2.748C382.776,302.977,382.623,301.277,382.486,299.577Zm-140.173,2.061q-.445,3.434-.821,7.056l-.393,3.434a3.845,3.845,0,0,1-.171.618.5.5,0,0,1,0,.155c-14.069-.206-28.12-.378-42.36-.549v-.378a9.351,9.351,0,0,1,0-1.339v-4.928c0-5.048.12-10.1.257-15.144,0-2.077.085-4.155.137-6.232.153-7.469.324-15.179.7-22.75.428-8.585.411-17.17.394-25.635,0-6.541,0-13.306.188-19.934,0-1.957.153-3.9.256-5.855.12-2.352.256-4.79.291-7.194v-17.2c0-2.335,0-2.112,2.034-2.215,6.12-.326,12.393-.584,17.915-.807,3.06-.137,7.077-.292,11.128-.412l15.094-.378,15.026-.377c2.6,0,5.214-.189,7.829-.309l4.325-.206h1.71c-.308,3.434-.77,6.868-1.214,10.181s-.94,6.988-1.248,10.543c-1.487.24-3.008.412-4.5.583a40.285,40.285,0,0,0-10.769,2.284l-.257.12-1.179,5.426c-.735,3.434-1.453,6.868-2.205,10.13q-.564,2.575-1.18,5.151c-.718,3.056-1.47,6.215-2.034,9.374s-.991,6.388-1.385,9.512c-.256,1.958-.512,3.9-.8,5.855s-.615,3.915-.94,5.855-.718,4.258-1.009,6.4c-.171,1.116-.239,2.267-.307,3.434s-.1,1.717-.206,2.61c-.273,2.37-.581,4.756-.888,7.126-.171,1.167-.325,2.352-.462,3.519q-1.486,11.178-2.923,22.476ZM126.687,312.867a41.267,41.267,0,0,1,.273-4.173A222.992,222.992,0,0,0,128,283.386c0-5.151.1-10.3.222-15.315,0-2.558.12-5.151.171-7.658V245.1c0-5.993,0-12.174.205-18.235s.53-12.413.872-18.474l.308-5.529c.222-3.846.479-7.692.735-11.607.12-1.871.256-3.777.376-5.683h1.487v.79c.12,1.013.222,1.957.291,2.919.222,2.541.427,5.151.649,7.606q.462,5.8.975,11.573c.5,5.442,1.06,10.971,1.709,16.912.274,2.592.581,5.151.906,7.76s.684,5.649.975,8.482.564,5.872.8,8.808c.171,2.1.359,4.173.547,6.25.256,2.747.53,5.477.8,8.224.427,4.327.871,8.791,1.23,13.2s.582,8.842.787,13.169l.119,2.73c.223,4.67.428,9.649.667,16.14v4.258H126.43a3.943,3.943,0,0,0,.291-1.528Zm13.06-129.906a8.978,8.978,0,0,0-.291-1.717l-.154-.79a1.967,1.967,0,0,0-2.068-1.82,11.936,11.936,0,0,1-3.3-.206,15.608,15.608,0,0,0-2.718-.275c-3.949,0-7.983-.086-11.881-.189l-5.025-.12h-2.223a15.854,15.854,0,0,0-.273-2.009c-.171-1.288-.325-2.541-.53-3.794-1.026-6.628-2.086-13.238-3.128-19.831-.12-.7-.223-1.391-.325-2.078-.222-1.545-.462-3.125-.769-4.687A22.731,22.731,0,0,0,93.1,128.138a24.1,24.1,0,0,0-9.4-2.164,22.017,22.017,0,0,0-7.231,1.185l-1.265.412-.821.275a11.59,11.59,0,0,1-.1-2.988,17.949,17.949,0,0,0,0-2.146,38.019,38.019,0,0,1,0-3.966V117.3a2.023,2.023,0,0,1,.769-.086c7.265.618,14.667.669,21.829.721h8.736c3.777,0,7.624.189,11.333.309s8,.275,11.966.326c14.752.189,29.71.292,44.189.4h5.043c14.94.086,30.359.189,45.573.189,13.043,0,26.223-.206,38.992-.429,7.368-.121,14.735-.309,22.1-.5l11.128-.275h.616v7.864h-1.829a53.779,53.779,0,0,0-17.454,2.506,38.887,38.887,0,0,0-16.325,10.3,43.62,43.62,0,0,0-9.658,15.985l-1.521,4.173c-1.111,3.021-2.257,6.146-3.282,9.271a20.417,20.417,0,0,0-.735,3.9,10.13,10.13,0,0,1-.223,1.545h-.1l-8.445.532c-6.444.4-12.889.807-19.351,1.151-2.718.154-5.47.223-8.136.309l-5.471.171a18.47,18.47,0,0,0-2.461.224l-1.47.154-2.205.172-2.291.189h-.171c-1.556.7-1.709,2.524-1.795,4.052v1.888c0,4,0,8.139-.154,12.191,0,1.871-.154,3.76-.256,5.632-.12,2.214-.239,4.515-.274,6.867q-.171,10.869-.307,21.754t-.325,21.961c0,2.609-.154,5.271-.274,7.846,0,1.872-.154,3.743-.205,5.615-.137,4.756-.239,9.512-.342,14.268l-.256,11a4.68,4.68,0,0,1,0,.67,5.28,5.28,0,0,1-.889,0l-2.53-.12c-2.274-.1-4.615-.206-6.838-.412-1.948-.155-3.931-.378-5.863-.6q-2.478-.275-5.026-.515c-1.966-.172-3.966-.429-5.914-.687a87.956,87.956,0,0,0-10.7-.893,24.528,24.528,0,0,0-2.53.086,1.852,1.852,0,0,1-.394,0v-.172a6.622,6.622,0,0,1-.119-.807c0-1.167-.1-2.335-.137-3.434,0-2.3-.171-4.687-.393-7.039-1.009-10.955-2.12-22.063-3.2-32.812v-.6c-.923-9.427-1.709-17.17-2.547-24.519-.325-2.867-.718-5.752-1.094-8.585l-.718-5.408c-.119-1-.222-1.992-.307-2.971s-.137-1.459-.223-2.18ZM143.166,90.5a5.269,5.269,0,0,0,5.521,5.408h5.949c3.2,0,6.5,0,9.744.1,4.12.12,8.325.309,12.393.5l5.727.275,1.094.1c-1.231,1.717-2.462,3.434-3.71,5.013-1.607,2.164-3.231,4.327-4.82,6.508a3.823,3.823,0,0,1-3.658,1.9c-4.855-.274-9.727-.343-14.462-.429l-9.026-.1c-5.778,0-11.744,0-17.59-.36-7.2-.378-14.53-.412-21.607-.43H84.669c-2.889,0-5.761,0-8.667-.12a2.485,2.485,0,0,1-.581-.086l.1-.12a17.213,17.213,0,0,1,1.128-1.391c.906-.978,1.829-1.923,2.752-2.867,1.709-1.854,3.641-3.76,5.265-5.8A139.312,139.312,0,0,1,96.857,85.248a156.374,156.374,0,0,0,11.436-12.293,2.1,2.1,0,0,1,1.864-.824h2.6c5.71.137,11.624.257,17.419.309,2.359,0,4.8,0,7.146-.172l3.812-.137h2.051V87.119c-.069,1.065-.086,2.232-.051,3.382Zm7.743-38.22V50.96c.1-3.434.206-6.988.206-10.491,0-2.026,0-4.069-.154-6.061l-.052-3.262a4.932,4.932,0,0,1,0-.824V30.03h.958c.991-.086,1.931-.155,2.889-.155l6.837.172,7.966.154h.923c10.582.12,21.522.258,32.292.309h27.658c7.009,0,14.291.24,21.641.532,3.077.1,6.137.343,9.368.6l3.812.309c.137,5.889.393,11.864.65,17.65.564,12.791,1.145,25.995.513,39.1h-5.368c-4.445-.1-9.71-.24-15.06-.446-2.906-.1-5.829-.257-8.752-.395-4.906-.24-9.966-.5-14.958-.584-7.265-.172-14.53,0-20.667.172-4.786.137-9.641.343-14.342.549q-5.607.258-11.231.464t-10.752.257l-8.411.189c-1.709,0-3.265.137-4.974.223l-1.983.12v-.395a8.243,8.243,0,0,1-.154-1.356c0-2.953.1-5.924.2-8.877.086-3.142.188-6.267.291-9.392V68.49c0-2.146.137-4.275.222-6.421C150.721,58.755,150.909,55.527,150.909,52.282ZM287.493,69.589a5.334,5.334,0,0,1-1.624,4.4c-3.59,3.279-7.214,6.524-11.077,9.993-.393-8.585-.479-17.17-.547-25.463,0-10.1-.188-20.6-.838-30.906l4.684-3.434,9.282-6.868V42.564c-.034,8.739-.034,17.942.137,27.025Zm3.419,103.482c-1.282,0-2.6.086-3.915.171,1.026-6.352,6.1-14.783,9.864-16.482a7.8,7.8,0,0,1,0,1.081v12.431c0,.618.085,1.2.153,1.889a4.864,4.864,0,0,1,0,.566c-1.812.206-3.88.275-6.068.344Zm4.171-24.21c-5.129,1.838-9.146,5.409-12.633,11.247a35.906,35.906,0,0,0-4.821,12.242c-.153.91-.495,1.013-1.47,1.03l-15.008-.1h-7.163a3.066,3.066,0,0,1,.137-.687c.1-.5.188-.944.29-1.374a3.273,3.273,0,0,1,.188-.515c0-.223.171-.429.24-.669a48.478,48.478,0,0,1,5.231-13.479,54.923,54.923,0,0,1,9.487-13.735,31.038,31.038,0,0,1,13.282-7.916c1.453-.429,2.906-.824,4.376-1.184a23.667,23.667,0,0,1,9.231-.172v1.3l.137,11.624c.188,1.786.188,1.786-1.47,2.386ZM281.92,199.443q1.111-6.283,2.239-12.551l.924-5.151a3.921,3.921,0,0,1,.136-.566c4.018-.584,30.958-1.082,36.753-.67l2.633,15.453-42.736,5.151a1.385,1.385,0,0,0,0-.258,7.294,7.294,0,0,1,.085-1.408Zm24.052-63.528a7.353,7.353,0,0,1,2.855,2.318,30.378,30.378,0,0,1,3.743,7.006c.5,1.167,1.026,2.369,1.607,3.537a6.141,6.141,0,0,1,.445,1.6v.121l-8.154-3.194-.171-4.241c-.086-2.3-.188-4.67-.291-7.16Zm6.393,21.617a24.079,24.079,0,0,1,7.419,14.886H307.715a87.124,87.124,0,0,1-.564-17.513,8.53,8.53,0,0,1,5.248,2.61Zm22.394-75.547c-.12,1.717-.24,3.176-.342,4.722-.428,7.211-.8,14.886-.5,22.613.222,5.065.171,10.061.1,13.856-.1,5.374.273,10.8.649,16.053.1,1.357.2,2.713.291,4.069a45.347,45.347,0,0,1,0,4.808,29.46,29.46,0,0,1-.1,3v21.17h-5.367a44.129,44.129,0,0,0-1.231-4.636,31.765,31.765,0,0,1-1.453-6.267,33.263,33.263,0,0,0-4.564-14.319,13.941,13.941,0,0,1-.872-1.906,15.551,15.551,0,0,0-.718-1.717,33.451,33.451,0,0,0-14.718-15.11v-2.592c0-1.425,0-2.85-.086-4.293v-1.184c-.085-2.456-.171-5-.325-7.5a2.308,2.308,0,0,1,.889-1.717l.308-.327c1.709-1.974,3.607-3.914,5.419-5.872l6.376-6.868c3.556-3.829,7.111-7.675,10.684-11.486,1.5-1.631,3.111-3.228,4.667-4.79L335,80.56Zm-6.069-7.434a42.31,42.31,0,0,1-2.769,3.743c-2.24,2.593-4.6,5.151-6.838,7.709-1.3,1.425-2.581,2.85-3.863,4.292-.684.773-1.368,1.545-2.034,2.335-1.129,1.339-2.308,2.713-3.556,3.983-1.812,1.82-3.692,3.623-5.521,5.374l-3.813,3.674a14.967,14.967,0,0,0-2,2.507,3.19,3.19,0,0,1-3.162,1.717c-5.128-.223-10.547-.481-15.8-.429-11.966,0-22.65.12-32.838.326-5.248.12-10.582.309-15.744.481q-6.358.224-12.718.412a33.149,33.149,0,0,1-4.12-.172c-1.06,0-2.171-.171-3.265-.171H184.483c1.077-1.305,1.948-2.4,2.837-3.434l1.351-1.717c1.9-2.353,3.846-4.773,5.692-7.212a2.254,2.254,0,0,1,2.051-.927h16.035c7.18,0,15.385,0,23.317.172,7.213.086,14.41.223,21.607.361H263a24.389,24.389,0,0,1,2.786.275c3.043.361,6.5.773,8.462-.652a56.024,56.024,0,0,0,7.179-6.731,72.061,72.061,0,0,1,5.949-5.752,42.918,42.918,0,0,0,6.445-6.868c.273-.343.581-.67.889-1a13.033,13.033,0,0,0,1.008-1.15,3.442,3.442,0,0,0,.718-1.717,19.319,19.319,0,0,0,.154-2.318v-.532l1.829.189c2.12.223,4.137.429,6.205.584,2.462.189,4.975.292,7.385.412h1.282c2.821.12,5.641.223,8.547.292a73.2,73.2,0,0,1,7.932.515ZM283.356,10.37c-.564.549-1.162,1.133-1.709,1.717-2.223,1.872-4.479,3.743-6.718,5.6l-6.616,5.529a3.271,3.271,0,0,1-2.308.7l-3.162-.1c-2.513,0-5.043-.172-7.573-.309-2.256-.1-4.53-.223-6.838-.361-2.752-.155-5.5-.309-8.239-.429H217.919c1.043-1.494,3.026-4.378,5.128-7.417,1.624-2.387,3.265-4.807,4.428-6.49h5.008l4.753-.189H253.39l12.718.24,17.094,1.2h.513ZM214.5,15.161c-2.137,3.194-4.222,6.267-5.128,7.589-19.026.223-35.163,0-50.668-.464a53.465,53.465,0,0,1,5.129-4.018c1.316-.927,2.837-2.043,4.308-3.245.974-.807,1.931-1.717,2.888-2.472,1.248-1.082,2.548-2.215,3.847-3.262a2.433,2.433,0,0,1,1.111-.309l.632-.12a11.524,11.524,0,0,1,2.325-.206h39.949C217.7,10.37,216.073,12.809,214.5,15.161ZM74.515,137.306v-.36a20.061,20.061,0,0,1,12.667-2.25,11.95,11.95,0,0,1,4.855,2.026,7.577,7.577,0,0,1,2.051,2.954,45.788,45.788,0,0,1,4.068,12.6c.786,4.688,1.487,9.461,2.153,14.062l.975,6.593c.2,1.374.393,2.73.615,4.207a7.445,7.445,0,0,1-1.077,0,90.7,90.7,0,0,0-9.162-.4c-2.633,0-5.265,0-7.846.137h-7.06c-.872,0-.957-.188-.991-.944q-.239-6.129-.5-12.276c-.171-4.052-.342-8.087-.5-12.139-.1-2.85-.154-5.7-.205-8.585V138.68A9.232,9.232,0,0,1,74.515,137.306ZM247.373,327.1c.581-4.447,1.2-8.876,1.829-13.323.564-4.035,1.145-8.07,1.709-12.019.462-3.434.872-6.988,1.3-10.508.359-3.073.718-6.147,1.111-9.2,1.2-9.34,2.479-19.35,3.847-29.343,1.2-8.86,2.478-17.891,3.777-26.836.513-3.434,1.146-6.868,1.71-10.3L263,213.66a8.6,8.6,0,0,1,.342-1.253,4.072,4.072,0,0,1,.1.927l.222,5.151c.274,5.855.547,11.915.718,17.873.12,4.293.171,8.585.24,12.9s.1,7.967.2,12.019c.205,8.018.461,15.538.786,22.973.257,5.357.633,11.143,1.146,18.2.188,2.369.393,4.721.615,7.091.308,3.434.632,6.953.838,10.439s.256,7.314.307,11.177v4.276l-15.915-.687-5.726-.241A38.2,38.2,0,0,1,247.373,327.1ZM269.6,213.66v-.584c0-.687-.137-1.408-.2-2.2l2.274-.36c1.88-.292,3.641-.584,5.436-.687a107.353,107.353,0,0,0,12.136-1.219,33.52,33.52,0,0,1,3.419-.361l1.71-.12,33.317-2.953,4.82-.429,4.838-.429h1.949l.376,1.717c.359,1.614.7,3.21,1.008,4.824.41,2.129.8,4.276,1.2,6.405q.871,4.738,1.709,9.477c2.2,11.126,4.5,22.613,6.838,33.91.65,3.194,1.333,6.37,2.017,9.547.581,2.695,1.163,5.374,1.71,8.07.188.892.29,1.837.393,2.73s.154,1.459.273,2.18q.668,4.146,1.368,8.293c.615,3.692,1.231,7.4,1.812,11.126.632,4.018,1.179,8.139,1.709,12.122l.547,4.069c0,.481.1.962.137,1.494v.446l-1.5.309-3.419.739-4.65,1.013c-4.632,1.013-9.248,2.009-13.863,3.056l-6.342,1.442c-7.471,1.717-15.18,3.434-22.89,4.6-2.8.412-5.624.789-8.427,1.167-3.863.532-7.744,1.048-11.607,1.614-2.239.326-4.5.721-6.667,1.1l-3.726.635c-.445,0-.889.12-1.419.155h-.325v-.515c0-.687-.1-1.271-.12-1.872v-4.121c0-2.73-.119-5.528-.256-8.293-.086-1.854-.291-3.725-.479-5.528-.137-1.254-.256-2.524-.359-3.777-.222-2.765-.41-5.512-.581-8.276l-.222-3.28c0-1.253-.171-2.489-.274-3.726-.2-2.644-.41-5.374-.53-8.052-.359-7.812-.632-15.058-.854-22.149-.171-5.494-.291-10.989-.411-16.466l-.1-5.494v-4.619c0-3.434,0-6.868-.257-10.3-.222-3.743-.6-7.537-.957-11.211-.137-1.683-.308-3.452-.461-5.22Zm83.061-.412c-.359-2.284-.735-4.567-1.145-6.868-.5-2.8-1.009-5.323-1.59-7.726a4.9,4.9,0,0,0-.923-1.717l-.376-.55a1.909,1.909,0,0,0-.393-.429,1.084,1.084,0,0,1-.239-.275,3.438,3.438,0,0,0-1.394-1.542,3.4,3.4,0,0,0-2.025-.449,5.551,5.551,0,0,0-.752,0l-4.77.549-3.624.412-1.812.12h-.906l-2.051-14.663c5.521-.1,11.043-.1,16.41-.086,6.137,0,12.479,0,18.8-.154l.171,2.249c.188,2.49.359,4.911.513,7.314l.291,4.705c.341,5.494.7,11.177.974,16.792.1,1.854.12,3.76.12,5.6v4.327q.324,9.221.718,18.406c0,1.717.188,3.571.29,5.34.154,2.455.308,4.979.359,7.469.137,6.867.2,14.233.222,22.32A143.235,143.235,0,0,0,370.81,295.1a20.649,20.649,0,0,1,.1,4v1.58h-.1c-2.051.189-2.051.189-2.359-1.923l-.718-4.893c-.478-3.228-.957-6.559-1.521-9.839-.308-1.716-.718-3.554-1.111-5.271s-.718-3.107-1.009-4.67c-.444-2.335-.837-4.7-1.247-7.057-.445-2.7-.924-5.477-1.454-8.207s-1.213-5.958-1.846-8.842-1.248-5.855-1.812-8.791c-1.4-7.108-2.684-14.337-3.931-21.325-.308-2.077-.684-4.344-1.06-6.61ZM120.14,278.785v2.129c0,2.507.1,4.979.171,7.469,0,3.313.154,6.627.188,9.941,0,3.863,0,7.778-.12,11.572,0,1.116-.1,2.232-.2,3.52a5.291,5.291,0,0,1-.1,1.253H95.917c-3.419,0-7.111-.1-10.633-.36a137.143,137.143,0,0,0-13.812,0c-1.709,0-3.607.1-5.4.12-8.445.155-16.906.258-25.368.361H39.386c-6.239.085-12.445.171-18.667.223a8.12,8.12,0,0,1-1.71-.12,8.058,8.058,0,0,0-1.538-.121c-1.367,0-2.735,0-4.1-.085H7.984l.359-4.5q.393-4.944.8-9.89c.171-1.906.325-3.829.5-5.752.239-2.747.479-5.511.684-8.258.137-1.717.256-3.434.376-5.151s.256-3.966.427-5.958.376-4.378.581-6.576c.222-2.558.462-5.151.667-7.658.393-5.048.786-10.4,1.026-15.727.171-3.176.274-6.353.376-9.546.12-3.52.239-7.16.444-10.749.154-2.884.444-5.82.735-8.585.188-1.854.376-3.708.53-5.563.325-4.206.615-8.413.923-12.636l.974-14.011a3.6,3.6,0,0,1,.171-.755.5.5,0,0,0,0-.155H30.1c1.351,0,2.7,0,4.051.12l2.957.086,9.009.155c5.915.1,11.966.188,18,.48,9.026.412,18.205.481,27.077.567h7.419c5.128,0,10.257.361,15.282.67l6.958.394,3.419.172a4.893,4.893,0,0,1,0,1.082c-.171,2.232-.359,4.464-.547,6.7q-.48,5.718-.924,11.452l-.205,2.679c-.342,4.55-.683,9.254-.871,13.89-.206,5.752-.342,11.5-.5,17.273-.12,4.807-.24,9.6-.393,14.422,0,2.49-.223,5.031-.359,7.486s-.291,5.34-.376,8.036C120.14,272.054,120.14,275.471,120.14,278.785ZM50.72,174.65a64.675,64.675,0,0,1,9.214-23.282c.735-1.219,1.709-2.644,2.564-3.966a11.669,11.669,0,0,1,1.231-1.391l.205-.223c0,4.687.291,9.409.564,13.993.325,5.375.65,10.92.547,16.432h-.12a6.068,6.068,0,0,1-.786,0H51.882a5.157,5.157,0,0,1-1.3-.12A5.178,5.178,0,0,1,50.72,174.65Z"/></svg>