<svg xmlns="http://www.w3.org/2000/svg" width="114.606" height="31.386" viewBox="0 0 114.606 31.386"><path d="M27.212,16.715A8.359,8.359,0,1,0,27.2,0H17.969V24.378h5.579V16.715Zm.011-11.494a2.978,2.978,0,0,1,2.958,3.137,2.978,2.978,0,0,1-2.958,3.137H23.56V5.221ZM8.962,8.783h6.722v6.722H8.962ZM9,17.824h6.722V24.49H9Zm-2.274-.078H0v6.722H6.722ZM55.2,24.378H49.831V22.7A6.73,6.73,0,0,1,44.5,24.882c-4.683,0-8.548-4.111-8.548-9.444S39.815,5.994,44.5,5.994a6.711,6.711,0,0,1,5.333,2.185V6.5H55.2Zm-5.366-8.94a4.258,4.258,0,1,0-8.514,0,4.259,4.259,0,1,0,8.514,0ZM69.5,23.728,75.575,6.5H69.906l-3.35,10.867L62.613,6.5H56.754l7.058,16.95c-.773,2.162-1.949,2.946-4.436,2.946v4.974C64.35,31.615,67.509,29.374,69.5,23.728ZM95.438,8.357A8.377,8.377,0,0,1,86.9,16.715H83.238v7.663H77.659V0H86.89A8.386,8.386,0,0,1,95.438,8.357Zm-5.568,0a2.978,2.978,0,0,0-2.958-3.137H83.249v6.274h3.663A2.978,2.978,0,0,0,89.87,8.357Zm15.505-1.871a9.2,9.2,0,1,0,9.231,9.2A9.133,9.133,0,0,0,105.375,6.486Zm-.012,5.086a3.9,3.9,0,0,1,4.011,4.111,4.012,4.012,0,1,1-8.021,0A3.91,3.91,0,0,1,105.363,11.573Z" fill-rule="evenodd"/></svg>